<svg width="57" height="32" viewBox="0 0 57 32" fill="none" xmlns="http://www.w3.org/2000/svg">
<g clip-path="url(#clip0_403_35)">
<path d="M0 7C3.1484 7.12851 6.24922 8.20115 9.26131 9.03468C15.6452 10.8013 21.9035 12.9562 28.0646 15.3913C34.5402 17.9507 40.7436 21.0593 46.8398 24.4141C49.7359 26.0078 52.7156 27.4371 55.3153 29.4797" stroke="#F0F3BD" stroke-width="3" stroke-linecap="round"/>
<path d="M55.6739 29.9961C51.0671 30.6624 52.5811 30.4426 48.5122 31.0337C47.8439 31.1308 46.8745 31.3349 46.1297 31.3636C45.9617 31.37 45.7931 31.3664 45.625 31.3664" stroke="#F0F3BD" stroke-width="3" stroke-linecap="round"/>
<path d="M55.8748 29.8452C56.1323 29.788 56.0282 29.0275 56.0158 28.8697C55.9554 28.0975 55.8702 27.3188 55.7987 26.5464C55.7293 25.7971 55.6718 25.0259 55.6718 24.2738C55.6718 23.6083 55.5703 22.9487 55.5703 22.2832" stroke="#F0F3BD" stroke-width="3" stroke-linecap="round"/>
</g>
<defs>
<clipPath id="clip0_403_35">
<rect width="56.047" height="31.3674" fill="white"/>
</clipPath>
</defs>
</svg>
