<svg width="24" height="170" viewBox="0 0 24 170" fill="none" xmlns="http://www.w3.org/2000/svg">
<path d="M6.09168 164.066C6.11182 164.014 6.13205 163.961 6.1528 163.908C6.74961 162.382 7.59375 161.032 8.46725 159.655C8.58266 159.473 8.69734 159.29 8.81146 159.107C7.95854 158.018 7.08939 156.939 6.1739 155.886C5.70495 155.347 5.09358 154.795 4.71423 154.179C4.45943 153.765 6.08246 154.304 6.21193 154.338C7.79706 154.756 9.39528 155.146 10.9851 155.561C11.593 154.582 12.2159 153.613 12.8791 152.673C13.2012 152.217 13.6601 151.843 13.8438 151.299C14.2494 150.097 13.789 154.497 13.7861 154.589C13.7677 155.17 13.7554 155.749 13.752 156.326C13.8786 156.363 14.0051 156.401 14.1315 156.439C16.2063 157.067 18.2424 157.724 20.3376 158.277C20.9567 158.44 22.4952 158.642 21.0245 158.789C19.1338 158.978 17.3718 159.397 15.5511 159.966C15.0062 160.136 14.4626 160.302 13.9228 160.476C14.0126 161.388 14.1429 162.298 14.3253 163.207C14.5678 164.416 14.9453 165.616 15.1152 166.839C15.2456 167.779 14.7512 166.776 14.5773 166.508C13.8879 165.448 13.0184 164.519 12.2375 163.53C11.7526 162.916 11.2754 162.299 10.8006 161.683C9.88613 162.086 8.81058 162.148 7.95245 162.659C7.14855 163.138 6.6126 163.533 6.09168 164.066Z" fill="#F0F3BD"/>
<path d="M5.39127 165.171C5.81763 164.856 5.96358 164.392 6.1528 163.908C6.74961 162.382 7.59375 161.032 8.46725 159.655C9.93963 157.334 11.2938 154.918 12.8791 152.673C13.2012 152.217 13.6601 151.843 13.8438 151.299C14.2494 150.097 13.789 154.497 13.7861 154.589C13.6942 157.499 13.7533 160.355 14.3253 163.207C14.5678 164.416 14.9453 165.616 15.1152 166.839C15.2456 167.779 14.7512 166.776 14.5773 166.508C13.8879 165.448 13.0184 164.519 12.2375 163.53C10.2122 160.966 8.32046 158.354 6.1739 155.886C5.70495 155.347 5.09358 154.795 4.71423 154.179C4.45943 153.765 6.08246 154.304 6.21193 154.338C8.8485 155.033 11.5213 155.65 14.1315 156.439C16.2063 157.067 18.2424 157.724 20.3376 158.277C20.9567 158.44 22.4952 158.642 21.0245 158.789C19.1338 158.978 17.3718 159.397 15.5511 159.966C13.973 160.458 12.4064 160.916 10.9089 161.633C9.97204 162.081 8.84471 162.128 7.95245 162.659C6.70305 163.403 6.10089 163.944 5.19646 165.119" stroke="#F0F3BD" stroke-width="3" stroke-linecap="round"/>
</svg>
