<svg width="47" height="70" viewBox="0 0 47 70" fill="none" xmlns="http://www.w3.org/2000/svg">
<g clip-path="url(#clip0_404_620)">
<path d="M0.0605469 10C6.35116 10.2247 12.8052 13.9126 17.7622 17.4651C22.1857 20.6353 26.4183 23.6685 29.161 28.4616C31.8381 33.14 33.7896 38.0631 35.3297 43.2129C36.2459 46.2763 37.7726 49.0888 38.6823 52.1532C39.331 54.3382 39.636 56.5672 40.2022 58.7689C40.9581 61.7085 41.0962 64.9034 41.0962 67.9327" stroke="#F0F3BD" stroke-width="3" stroke-linecap="round"/>
<path d="M40.4166 69.1495C38.3919 67.2961 36.4913 65.4723 34.9668 63.1855" stroke="#F0F3BD" stroke-width="3" stroke-linecap="round"/>
<path d="M41.1387 69.8677C41.9709 68.5459 42.8227 67.3028 43.8122 66.0746C44.3605 65.3939 45.0452 64.9287 45.6402 64.3094C46.0653 63.867 46.4697 62.9349 46.9998 62.6699" stroke="#F0F3BD" stroke-width="3" stroke-linecap="round"/>
</g>
<defs>
<clipPath id="clip0_404_620">
<rect width="46.9392" height="69.8678" fill="white" transform="translate(0.0605469)"/>
</clipPath>
</defs>
</svg>
