<svg width="78" height="37" viewBox="0 0 78 37" fill="none" xmlns="http://www.w3.org/2000/svg">
<path d="M1.66797 34.5589C1.75556 33.683 3.14852 32.8905 3.73444 32.3046C5.36848 30.6706 7.03324 29.0875 8.7232 27.5141C9.83808 26.4761 11.1789 25.7242 12.3761 24.7901C14.2212 23.3506 16.2416 21.911 18.2415 20.6989C19.9029 19.692 21.6806 18.6955 23.4494 17.8915C26.075 16.698 28.4119 14.9786 31.0891 13.8942C35.3783 12.1568 39.6802 10.5253 44.0202 8.92632C49.5189 6.90049 55.0749 5.977 60.9069 5.67005C63.931 5.51089 66.9496 5.69191 69.966 5.80573C71.9897 5.8821 74.0415 6.19189 76.061 6.19189" stroke="#F0F3BD" stroke-width="3" stroke-linecap="round"/>
<path d="M76.0127 5.75722C76.0127 5.08318 73.0043 3.91492 72.3807 3.58638C71.0243 2.87173 68.948 2 67.3711 2" stroke="#F0F3BD" stroke-width="3" stroke-linecap="round"/>
<path d="M75.8248 7C75.2474 7.10499 74.7259 7.64355 74.2385 7.93931C73.1022 8.62873 72.0035 9.36345 70.8778 10.0684C69.7554 10.7713 68.4936 11.2109 67.3711 11.8844" stroke="#F0F3BD" stroke-width="3" stroke-linecap="round"/>
</svg>
